HIERARCHY
ROOT Hips
{
	OFFSET 0.00000 0.00000 0.00000
	CHANNELS 6 Xposition Yposition Zposition Zrotation Yrotation Xrotation 
	JOINT LHipJoint
	{
		OFFSET 0 0 0
		CHANNELS 3 Zrotation Yrotation Xrotation
		JOINT LeftHip
		{
			OFFSET 1.66553 -1.82942 0.76350
			CHANNELS 3 Zrotation Yrotation Xrotation
			JOINT LeftKnee
			{
				OFFSET 2.41740 -6.64177 0.00000
				CHANNELS 3 Zrotation Yrotation Xrotation
				JOINT LeftAnkle
				{
					OFFSET 2.71614 -7.46254 0.00000
					CHANNELS 3 Zrotation Yrotation Xrotation
					JOINT LeftToe
					{
						OFFSET 0.08005 -0.21993 1.82495
						CHANNELS 3 Zrotation Yrotation Xrotation
						End Site
						{
							OFFSET 0.00000 -0.00000 0.93441
						}
					}
				}
			}
		}
	}
	JOINT RHipJoint
	{
		OFFSET 0 0 0
		CHANNELS 3 Zrotation Yrotation Xrotation
		JOINT RightHip
		{
			OFFSET -1.63725 -1.82942 0.76350
			CHANNELS 3 Zrotation Yrotation Xrotation
			JOINT RightKnee
			{
				OFFSET -2.40538 -6.60872 0.00000
				CHANNELS 3 Zrotation Yrotation Xrotation
				JOINT RightAnkle
				{
					OFFSET -2.73312 -7.50919 0.00000
					CHANNELS 3 Zrotation Yrotation Xrotation
					JOINT RightToe
					{
						OFFSET -0.15567 -0.42769 1.93504
						CHANNELS 3 Zrotation Yrotation Xrotation
						End Site
						{
							OFFSET -0.00000 -0.00000 1.00100
						}
					}
				}
			}
		}
	}
	JOINT lowerback
	{
		OFFSET 0 0 0
		CHANNELS 3 Zrotation Yrotation Xrotation
		JOINT Chest
		{
			OFFSET 0.00326 2.30118 -0.13017
			CHANNELS 3 Zrotation Yrotation Xrotation
			JOINT Chest2
			{
				OFFSET 0.02887 2.30677 0.00834
				CHANNELS 3 Zrotation Yrotation Xrotation
				JOINT lowerneck
				{
					OFFSET 0 0 0
					CHANNELS 3 Zrotation Yrotation Xrotation
					JOINT Neck
					{
						OFFSET 0.12946 1.68326 0.00713
						CHANNELS 3 Zrotation Yrotation Xrotation
						JOINT Head
						{
							OFFSET -0.24364 1.67243 -0.16079
							CHANNELS 3 Zrotation Yrotation Xrotation
							End Site
							{
								OFFSET -0.09229 1.70819 -0.06383
							}
						}
					}
				}
				JOINT LeftCollar
				{
					OFFSET 0 0 0
					CHANNELS 3 Zrotation Yrotation Xrotation
					JOINT LeftShoulder
					{
						OFFSET 3.28104 0.69567 -0.00556
CHANNELS 3 Zrotation Xrotation Yrotation
						JOINT LeftElbow
						{
OFFSET 0 -5.707060 -0.000000
CHANNELS 3 Zrotation Xrotation Yrotation
							JOINT LeftWrist
							{
OFFSET 0 -3.332430 0.000000
CHANNELS 3 Zrotation Xrotation Yrotation
								JOINT lhand
								{
									OFFSET 0 0 0
CHANNELS 3 Zrotation Xrotation Yrotation
									JOINT LFingers
									{
OFFSET 0 -0.792690 0.000000
CHANNELS 3 Zrotation Xrotation Yrotation
										End Site
										{
OFFSET 0 -0.639090 0.000000
										}
									}
								}
								JOINT LThumb
								{
OFFSET 0 0.000000 0.000000
CHANNELS 3 Zrotation Xrotation Yrotation
									End Site
									{
OFFSET 0 -0.648840 0.648840
									}
								}
							}
						}
					}
				}
				JOINT RightCollar
				{
					OFFSET 0 0 0
					CHANNELS 3 Zrotation Yrotation Xrotation
					JOINT RightShoulder
					{
						OFFSET -3.40955 0.64424 0.14010
CHANNELS 3 Zrotation Xrotation Yrotation
						JOINT RightElbow
						{
OFFSET 0 -5.881760 -0.000000
CHANNELS 3 Zrotation Xrotation Yrotation
							JOINT RightWrist
							{
OFFSET 0 -3.281560 0.000000
CHANNELS 3 Zrotation Xrotation Yrotation
								JOINT rhand
								{
									OFFSET 0 0 0
CHANNELS 3 Zrotation Xrotation Yrotation
									JOINT RFingers
									{
OFFSET 0 -0.863130 0.000000
CHANNELS 3 Zrotation Xrotation Yrotation
										End Site
										{
OFFSET 0 -0.695870 0.000000
										}
									}
								}
								JOINT RThumb
								{
OFFSET 0 0.000000 0.000000
CHANNELS 3 Zrotation Xrotation Yrotation
									End Site
									{
OFFSET 0 -0.706500 0.706500
									}
								}
							}
						}
					}
				}
			}
		}
	}
}
MOTION
Frames: 8
Frame Time: 0.008333333333333333
12.571100 17.802100 -7.538400 1.657800 1.946900 25.067900 0.000000 0.000000 0.000000 -6.414300 -13.571800 -42.876800 4.120100 12.318500 36.868300 0.291700 -5.318600 -9.745000 4.135300 -12.338300 -36.939500 0.000000 0.000000 0.000000 10.689200 10.353900 -42.935600 -5.357400 -13.775300 42.344900 -1.080800 6.190700 -18.562900 -1.701000 -8.213200 23.363700 -1.769000 -2.750000 16.688200 0.560800 -4.247200 -10.997800 3.161900 -1.469600 -22.064800 13.302200 7.109400 3.930600 -22.920100 5.360600 -37.481500 -12.176700 3.384500 -11.350800 -0.000000 -0.000000 0.000000 55.276300 -53.521300 4.935600 105.235300 -59.104500 73.154500 45.302900 -43.155200 -14.465100 0.000000 0.000000 0.000000 -7.125000 0.000000 0.000000 17.749200 49.277400 -1.927000 -0.000000 -0.000000 0.000000 -17.794100 -29.929100 33.350200 -95.977900 -59.864500 -65.174600 -17.053500 -4.151700 -4.919900 0.000000 0.000000 0.000000 7.125000 0.000000 -0.000000 7.191800 24.834000 3.532800
12.848961 17.835506 -7.618482 2.231870 1.875864 27.160308 0.000000 0.000000 0.000000 -8.120716 -13.219822 -45.646439 3.989279 12.146138 36.251032 0.182148 -6.476151 -8.254377 2.461029 -9.766237 -28.223461 0.000000 0.000000 0.000000 7.917628 12.506774 -44.152724 -5.072790 -13.465247 41.136220 -1.115252 3.633418 -19.082025 -1.790131 -8.414200 23.979562 -1.716223 -2.893261 17.116185 0.252228 -4.491137 -10.576581 2.865964 -1.625941 -21.797180 13.909789 6.516701 4.330637 -22.785855 4.612528 -38.152521 -12.402692 2.928074 -11.898597 0.000000 0.000000 0.000000 43.957093 -50.938410 -6.189057 106.432340 -58.954611 74.180871 44.624081 -42.942153 -15.545074 0.000000 0.000000 0.000000 -7.125000 0.000000 0.000000 17.248729 50.517210 -2.407609 0.000000 0.000000 0.000000 -16.345522 -27.410451 31.685570 -99.764960 -59.636512 -68.446294 -17.284701 -4.075990 -4.649153 0.000000 0.000000 0.000000 7.125000 0.000000 0.000000 7.030097 25.108999 3.407013
13.097390 17.858844 -7.735706 1.620332 0.821114 30.126131 0.000000 0.000000 0.000000 -7.563128 -13.690575 -49.180683 3.973271 12.124728 36.174767 0.184661 -5.707792 -8.069272 2.577915 -9.974869 -28.898389 0.000000 0.000000 0.000000 5.363295 15.882039 -46.918124 -4.835758 -13.196387 40.108193 -1.042315 1.629565 -18.820497 -1.723308 -8.264267 23.519623 -1.814445 -2.547322 17.705406 0.620536 -3.971827 -10.404521 3.191631 -1.342831 -21.937875 13.786388 6.361866 4.315335 -22.401826 4.496114 -37.980616 -12.179475 2.858605 -11.885160 0.000000 0.000000 0.000000 30.739510 -45.309105 -16.585603 109.729156 -58.475878 76.998361 46.567448 -41.648038 -17.884931 0.000000 0.000000 0.000000 -7.125000 0.000000 0.000000 20.035052 53.988061 -4.571143 0.000000 0.000000 0.000000 -15.453600 -24.692077 31.193667 -103.347825 -59.315905 -71.532974 -18.175699 -4.535355 -4.544569 0.000000 0.000000 0.000000 7.125000 0.000000 0.000000 6.366483 25.194852 3.068519
13.333047 17.886073 -7.836631 1.052832 -0.671446 33.046619 0.000000 0.000000 0.000000 -7.180119 -14.258523 -52.083921 3.793946 11.881011 35.312361 0.225467 -3.873536 -8.469715 2.550166 -9.928202 -28.744812 0.000000 0.000000 0.000000 3.172741 17.653456 -50.107765 -4.551384 -12.859963 38.846544 -0.959054 0.993999 -18.202771 -1.595702 -7.967262 22.614863 -1.343328 -2.363656 18.769111 0.369194 -3.647815 -10.164829 2.568149 -1.286326 -22.378752 14.124488 6.049508 5.060131 -22.012831 4.328502 -37.730984 -12.096148 2.724828 -11.998801 0.000000 0.000000 0.000000 20.844001 -36.413643 -23.101983 113.272076 -57.851161 80.008813 48.490683 -38.989134 -19.821089 0.000000 0.000000 0.000000 -7.125000 0.000000 0.000000 23.082403 56.989055 -7.039648 0.000000 0.000000 0.000000 -12.993343 -22.116006 31.563347 -105.215592 -59.106909 -73.137547 -17.447215 -4.397784 -4.917170 0.000000 0.000000 0.000000 7.125000 0.000000 0.000000 6.898050 24.826345 3.388088
13.517685 17.910237 -7.962556 1.088578 -2.153708 36.545811 0.000000 0.000000 0.000000 -6.843114 -15.151352 -55.363307 3.514482 11.484581 33.932238 0.231452 -2.275637 -8.583303 2.434288 -9.717139 -28.065834 0.000000 0.000000 0.000000 0.091733 19.016185 -53.830061 -4.154415 -12.362907 37.028425 -0.900796 0.017679 -17.938634 -1.724099 -8.265902 23.524820 -1.483086 -2.428322 19.677761 0.053514 -3.847178 -9.628552 2.381978 -1.385389 -22.242344 13.568857 6.103704 4.833386 -21.285997 4.489226 -37.771968 -11.656510 2.795777 -11.997069 0.000000 0.000000 0.000000 14.284281 -26.684153 -25.215849 115.529885 -57.388004 81.915579 47.731594 -41.029354 -18.442096 0.000000 0.000000 0.000000 -7.125000 0.000000 0.000000 21.624686 55.015057 -5.508834 0.000000 0.000000 0.000000 -10.362084 -21.432303 32.346819 -105.418463 -59.082307 -73.311621 -17.386174 -3.650933 -5.149130 0.000000 0.000000 0.000000 7.125000 0.000000 0.000000 6.934861 24.586652 3.444701
13.636041 17.876217 -8.050215 0.455540 -3.760776 40.348975 0.000000 0.000000 0.000000 -5.856488 -15.156919 -59.574436 3.435312 11.368443 33.532861 0.238129 -0.650121 -9.008861 3.205582 -11.018062 -32.343579 0.000000 0.000000 0.000000 -2.112059 20.271887 -57.351033 -3.562120 -11.553565 34.170655 -0.741666 -1.098429 -16.702959 -2.181610 -9.234335 26.531318 -1.609676 -2.264940 20.372902 -0.132437 -3.706410 -9.401000 2.212677 -1.320864 -22.388926 13.501246 6.007448 4.782807 -21.090425 4.407810 -37.422591 -11.498951 2.763305 -11.872856 0.000000 0.000000 0.000000 9.334348 -16.720541 -24.100051 115.509571 -57.392321 81.898506 50.293082 -41.453667 -16.411827 0.000000 0.000000 0.000000 -7.125000 0.000000 0.000000 23.953489 53.056134 -4.885936 0.000000 0.000000 0.000000 -8.787490 -19.125190 32.657275 -107.637489 -58.791230 -75.212503 -15.809721 -2.870411 -5.698939 0.000000 0.000000 0.000000 7.125000 0.000000 0.000000 8.083044 24.064756 4.124077
13.680678 17.836167 -8.175260 0.212315 -4.573420 44.432217 0.000000 0.000000 0.000000 -3.960165 -15.975084 -63.927378 3.247164 11.084756 32.566190 0.201359 0.848918 -8.828772 3.266884 -11.114849 -32.668422 0.000000 0.000000 0.000000 -4.729175 21.045955 -61.965909 -3.297060 -11.161064 32.825054 -0.679066 -2.300724 -16.566738 -2.239352 -9.347860 26.889619 -1.520474 -2.344103 20.879743 -0.500099 -3.868302 -9.101639 1.814702 -1.441577 -22.335539 13.487285 6.193594 4.625294 -21.271827 4.608272 -37.607220 -11.597447 2.894124 -11.856121 0.000000 0.000000 0.000000 7.151821 -9.052909 -21.214185 115.232685 -57.451906 81.665162 54.356877 -41.360904 -16.021557 0.000000 0.000000 0.000000 -7.125000 0.000000 0.000000 28.950334 53.746149 -6.634135 0.000000 0.000000 0.000000 -7.217480 -18.098679 32.488385 -108.401678 -58.680985 -75.865725 -14.838479 -1.549699 -6.504055 0.000000 0.000000 0.000000 7.125000 0.000000 0.000000 8.762391 23.269943 4.640303
13.654138 17.766927 -8.306974 -0.118235 -5.053143 48.845640 0.000000 0.000000 0.000000 -1.440747 -16.393214 -69.044761 3.148643 10.931933 32.050595 0.137450 2.350042 -8.281409 3.448745 -11.388094 -33.600471 0.000000 0.000000 0.000000 -6.340103 21.074569 -67.294193 -3.155296 -10.942282 32.085546 -0.563818 -3.581103 -15.941819 -1.475794 -7.676126 21.734727 -1.312518 -2.434521 20.975086 -0.854664 -4.015078 -9.171038 1.354637 -1.567686 -22.536408 13.614263 6.289721 4.620408 -21.488810 4.689145 -38.038547 -11.792482 2.949279 -11.999503 0.000000 0.000000 0.000000 6.464648 -3.121589 -17.068323 116.141098 -57.253448 82.430128 54.365568 -40.539643 -17.166485 0.000000 0.000000 0.000000 -7.125000 0.000000 0.000000 29.702167 55.321422 -8.044451 0.000000 0.000000 0.000000 -6.700370 -16.492489 33.061528 -110.155399 -58.407977 -77.361773 -15.680170 -3.674061 -5.978562 0.000000 0.000000 0.000000 7.125000 0.000000 0.000000 8.166512 23.781229 4.221285
